<svg width="209" height="219" viewBox="0 0 209 219" fill="none" xmlns="http://www.w3.org/2000/svg">
<path d="M67.6789 41.6511C81.5569 61.3421 87.3519 82.0642 85.0629 103.817C82.8269 125.531 72.8289 147.382 55.071 169.369L33.6525 157.384C46.1724 142.187 54.2211 127.828 57.7988 114.307C61.3764 100.786 60.7525 88.8782 55.9273 78.5822L13.2358 110.69L0.246338 92.3661L67.6789 41.6511ZM163.854 81.4471L140.908 98.7041L83.4159 17.6009L106.362 0.34375L163.854 81.4471ZM208.922 145.023L112.612 217.457L71.7239 159.776L168.033 87.3432L208.922 145.023ZM122.213 182.387L173.568 143.764L158.545 122.572L107.19 161.195L122.213 182.387Z" fill="#FBFBFB"/>
<path d="M80.854 204.375C80.854 205.781 80.565 207.056 79.989 208.198C79.413 209.351 78.612 210.254 77.587 210.908C76.562 211.572 75.414 211.904 74.145 211.904C72.865 211.904 71.713 211.572 70.687 210.908C69.662 210.254 68.856 209.355 68.271 208.213C67.694 207.07 67.406 205.791 67.406 204.375C67.406 202.969 67.694 201.689 68.271 200.537C68.856 199.395 69.662 198.491 70.687 197.827C71.713 197.173 72.865 196.846 74.145 196.846C75.414 196.846 76.557 197.173 77.572 197.827C78.598 198.491 79.398 199.395 79.975 200.537C80.561 201.689 80.854 202.969 80.854 204.375ZM77.162 204.404C77.162 203.76 77.045 203.179 76.811 202.661C76.586 202.153 76.244 201.753 75.785 201.46C75.336 201.167 74.789 201.025 74.145 201.035C73.51 201.035 72.958 201.177 72.489 201.46C72.03 201.753 71.679 202.148 71.435 202.646C71.19 203.145 71.068 203.711 71.068 204.346C71.068 204.98 71.186 205.552 71.42 206.06C71.664 206.567 72.016 206.968 72.475 207.261C72.943 207.554 73.5 207.705 74.145 207.715C74.779 207.715 75.321 207.568 75.771 207.275C76.229 206.992 76.576 206.602 76.811 206.104C77.045 205.605 77.162 205.039 77.162 204.404ZM55.6289 218.437V214.189H82.611V218.437H55.6289ZM64.3887 195.791C64.3984 199.111 64.457 202.144 64.564 204.888C64.672 207.642 64.906 210.264 65.268 212.754L62.1914 213.076C61.7031 210.615 61.376 208.052 61.21 205.386C61.0439 202.729 60.9609 199.961 60.9609 197.08V196.289L64.3887 195.791Z" fill="#FBFBFB"/>
<rect width="10.0105" height="10.2901" rx="1.8" transform="matrix(0.981583 0.191034 0.180425 -0.983589 34 184.121)" fill="#FBFBFB"/>
</svg>
