<svg width="187" height="202" viewBox="0 0 187 202" fill="none" xmlns="http://www.w3.org/2000/svg">
<path d="M181.123 139.726L152.86 31.079C149.801 19.3201 137.826 12.4081 126.114 15.6407L21.7074 44.4564C9.99505 47.689 2.98005 59.842 6.03898 71.6009L34.3021 180.248C37.361 192.007 49.3355 198.919 61.0479 195.686L165.454 166.87C177.167 163.638 184.182 151.485 181.123 139.726Z" fill="#FBFBFB"/>
<path d="M81.9401 60.9137C105.293 54.4686 130.063 68.6649 136.599 93.7909C143.135 118.917 128.575 143.967 105.222 150.412C81.8688 156.858 57.099 142.662 50.5626 117.536C44.0263 92.4104 58.5867 67.3592 81.9401 60.9137Z" stroke="#111927" stroke-width="35"/>
<rect width="15.0306" height="15.4207" rx="1.8" transform="matrix(0.96396 -0.266049 -0.251758 -0.96779 101.882 18.9229)" fill="#FBF52D"/>
</svg>
