<svg width="14" height="18" viewBox="0 0 14 18" fill="none" xmlns="http://www.w3.org/2000/svg">
<path d="M3.66683 14H10.3335V12.3333H3.66683V14ZM3.66683 10.6666H10.3335V8.99996H3.66683V10.6666ZM2.00016 17.3333C1.54183 17.3333 1.14947 17.1701 0.823079 16.8437C0.496691 16.5173 0.333496 16.125 0.333496 15.6666V2.33329C0.333496 1.87496 0.496691 1.4826 0.823079 1.15621C1.14947 0.82982 1.54183 0.666626 2.00016 0.666626H8.66683L13.6668 5.66663V15.6666C13.6668 16.125 13.5036 16.5173 13.1772 16.8437C12.8509 17.1701 12.4585 17.3333 12.0002 17.3333H2.00016ZM7.8335 6.49996V2.33329H2.00016V15.6666H12.0002V6.49996H7.8335Z" fill="#111927"/>
</svg>
