<svg width="199" height="221" viewBox="0 0 199 221" fill="none" xmlns="http://www.w3.org/2000/svg">
<path d="M144.388 95.1548L179.353 131.17C186.926 138.97 192.232 147.332 195.27 156.254C198.309 165.176 198.898 173.911 197.039 182.459C195.225 191.054 191.053 198.714 184.522 205.441C177.992 212.167 170.555 216.465 162.21 218.333C153.911 220.248 145.431 219.641 136.769 216.512C128.108 213.382 119.99 207.917 112.417 200.116L100.308 187.644L68.7449 220.155L45.8887 196.612L144.388 95.1548ZM133.64 179.096C138.357 184.047 143.209 186.756 148.197 187.223C153.186 187.691 157.675 185.916 161.666 181.898C165.612 177.741 167.335 173.117 166.836 168.025C166.428 162.933 163.798 157.935 158.945 153.031L146.429 140.138L121.124 166.203L133.64 179.096Z" fill="#FBFBFB"/>
<path d="M42.1808 81.1396L26.175 76.722C25.1102 76.4282 24.0216 77.0565 23.7436 78.1255L5.5918 147.903C5.31372 148.972 5.95145 150.077 7.01621 150.371L23.022 154.788C24.0868 155.082 25.1753 154.454 25.4534 153.385L43.6052 83.6072C43.8833 82.5383 43.2455 81.4334 42.1808 81.1396Z" fill="#FBFBFB"/>
<path d="M24.8434 93.9745L6.56781 88.9305C5.50305 88.6367 4.41446 89.265 4.13638 90.334L0.58178 103.998C0.303695 105.067 0.941423 106.172 2.00618 106.466L20.2818 111.51C21.3466 111.804 22.4352 111.176 22.7132 110.107L26.2678 96.4422C26.5459 95.3732 25.9082 94.2684 24.8434 93.9745Z" fill="#FBFBFB"/>
<path d="M64.0946 144.198L48.0888 139.78C47.024 139.486 45.9355 140.115 45.6574 141.184L41.3425 157.77C41.0644 158.839 41.7022 159.944 42.7669 160.238L58.7727 164.656C59.8375 164.95 60.9261 164.321 61.2041 163.252L65.519 146.665C65.7971 145.596 65.1594 144.492 64.0946 144.198Z" fill="#FBFBFB"/>
<path d="M53.7846 101.962L35.509 96.9183C34.4442 96.6245 33.3556 97.2528 33.0775 98.3218L29.5229 111.986C29.2449 113.055 29.8826 114.16 30.9473 114.454L49.223 119.498C50.2877 119.792 51.3763 119.163 51.6544 118.094L55.209 104.43C55.4871 103.361 54.8494 102.256 53.7846 101.962Z" fill="#FBFBFB"/>
<path d="M41.9618 155.631L25.956 151.213C24.8912 150.919 23.8026 151.548 23.5246 152.617L19.2097 169.204C18.9316 170.273 19.5693 171.377 20.6341 171.671L36.6399 176.089C37.7047 176.383 38.7932 175.754 39.0713 174.685L43.3862 158.098C43.6643 157.029 43.0265 155.925 41.9618 155.631Z" fill="#FBFBFB"/>
<path d="M104.738 1.61276L83.2762 9.8979C82.2457 10.2957 81.7166 11.4596 82.0943 12.4976L85.2424 21.1497C85.62 22.1877 86.7616 22.7067 87.792 22.3089L109.254 14.0237C110.284 13.6259 110.814 12.462 110.436 11.424L107.288 2.77195C106.91 1.73395 105.769 1.21497 104.738 1.61276Z" fill="#FBFBFB"/>
<path d="M123.212 52.3847L101.75 60.6699C100.719 61.0677 100.19 62.2316 100.568 63.2696L103.716 71.9217C104.094 72.9597 105.235 73.4786 106.266 73.0808L127.728 64.7957C128.758 64.3979 129.287 63.234 128.91 62.196L125.762 53.5439C125.384 52.5059 124.242 51.9869 123.212 52.3847Z" fill="#FBFBFB"/>
<path d="M83.5137 18.8135L75.1961 22.0244C74.1657 22.4222 73.6365 23.5861 74.0142 24.6241L77.1623 33.2761C77.54 34.3141 78.6815 34.8331 79.7119 34.4353L88.0295 31.2245C89.0599 30.8267 89.5891 29.6627 89.2114 28.6247L86.0633 19.9727C85.6856 18.9347 84.5441 18.4157 83.5137 18.8135Z" fill="#FBFBFB"/>
<path d="M79.9512 33.0562L71.6336 36.267C70.6032 36.6648 70.074 37.8288 70.4517 38.8668L78.5261 61.058C78.9038 62.096 80.0453 62.615 81.0757 62.2172L89.3933 59.0063C90.4237 58.6085 90.9529 57.4446 90.5752 56.4066L82.5008 34.2153C82.1231 33.1773 80.9816 32.6584 79.9512 33.0562Z" fill="#FBFBFB"/>
<path d="M96.2402 53.7896L87.9227 57.0004C86.8922 57.3982 86.3631 58.5622 86.7407 59.6002L89.8888 68.2522C90.2665 69.2902 91.408 69.8092 92.4385 69.4114L100.756 66.2005C101.786 65.8027 102.316 64.6388 101.938 63.6008L98.7899 54.9487C98.4122 53.9107 97.2707 53.3918 96.2402 53.7896Z" fill="#FBFBFB"/>
<path d="M109.153 8.91553L117.47 5.70464C118.501 5.30685 119.642 5.82584 120.02 6.86383L123.168 15.5159C123.546 16.5539 123.016 17.7178 121.986 18.1156L113.668 21.3265C112.638 21.7243 111.496 21.2053 111.119 20.1673L107.971 11.5152C107.593 10.4773 108.122 9.31332 109.153 8.91553Z" fill="#FBFBFB"/>
<path d="M130.362 13.7461C131.392 13.3483 132.534 13.8674 132.912 14.9053L141.373 38.1589C141.502 38.3215 141.608 38.5069 141.684 38.7139L144.747 47.132C145.124 48.17 144.595 49.3339 143.565 49.7317L126.609 56.2774C125.578 56.6752 124.437 56.1562 124.059 55.1183L120.996 46.7002C120.618 45.6622 121.148 44.4982 122.178 44.1004L129.083 41.435L121.09 19.4688C120.713 18.4309 121.242 17.2669 122.272 16.8691L130.362 13.7461Z" fill="#FBFBFB"/>
<rect width="15.1139" height="15.3391" rx="1.8" transform="matrix(0.8595 0.511135 0.488947 -0.872313 89 113.38)" fill="#FBF52D"/>
<mask id="path-15-inside-1_135_178" fill="white">
<rect width="15.1139" height="15.3391" rx="1.8" transform="matrix(0.8595 0.511135 0.488947 -0.872313 29 28.3804)"/>
</mask>
<rect width="15.1139" height="15.3391" rx="1.8" transform="matrix(0.8595 0.511135 0.488947 -0.872313 29 28.3804)" stroke="#FBF52D" stroke-width="4" mask="url(#path-15-inside-1_135_178)"/>
<rect width="10.0105" height="10.2901" rx="1.8" transform="matrix(0.981583 0.191034 0.180425 -0.983589 58 16.1211)" fill="#FBFBFB"/>
</svg>
