<svg width="100" height="176" viewBox="0 0 100 176" fill="none" xmlns="http://www.w3.org/2000/svg">
<path d="M31.4054 144.785L28.1311 154.631C27.7825 155.68 28.3444 156.827 29.3861 157.195L80.4845 175.222C81.5262 175.59 82.6531 175.038 83.0017 173.99L86.276 164.143C86.6246 163.095 86.0627 161.947 85.021 161.58L33.9226 143.552C32.8809 143.185 31.754 143.737 31.4054 144.785Z" fill="#FBFBFB"/>
<path d="M86.6114 153.373L83.6611 162.246C83.3126 163.294 83.8744 164.441 84.9161 164.809L93.4425 167.817C94.4842 168.185 95.6111 167.633 95.9597 166.585L98.9099 157.712C99.2585 156.664 98.6966 155.517 97.655 155.149L89.1285 152.141C88.0869 151.774 86.9599 152.325 86.6114 153.373Z" fill="#FBFBFB"/>
<path d="M63.9624 92.0218L50.2529 87.764L55.877 68.5507L37.2712 62.7724C34.5537 64.1778 31.6158 65.0035 28.4577 65.2496C25.2995 65.4958 22.1194 65.1216 18.9174 64.1272C14.6895 62.8141 11.1026 60.6437 8.1567 57.6157C5.2419 54.5975 3.2726 51.0719 2.2487 47.0391C1.265 42.9847 1.3905 38.8487 2.6251 34.6311C3.8871 30.3198 6.0112 26.7705 8.9976 23.9831C11.9932 21.1645 15.4952 19.3381 19.5037 18.5041C23.5525 17.6485 27.7064 17.882 31.9653 19.2047C35.1984 20.2088 38.0804 21.7173 40.6112 23.7302C43.142 25.7431 45.1626 28.1087 46.673 30.8272L65.2322 36.591L68.5792 25.1567L82.2889 29.4144L63.9624 92.0218ZM59.3147 114.503L0 96.0818L8.1755 68.1527L21.7918 72.3814L16.8261 89.3453L62.5246 103.538L59.3147 114.503ZM28.5744 31.1365C26.647 30.5379 24.7982 30.4239 23.028 30.7943C21.298 31.1431 19.7646 31.979 18.4278 33.302C17.122 34.6346 16.1445 36.41 15.4952 38.6281C14.8642 40.7838 14.7352 42.7886 15.1082 44.6426C15.5214 46.4749 16.3552 48.029 17.6096 49.3047C18.8952 50.59 20.5016 51.532 22.4291 52.1306C24.3565 52.7292 26.2007 52.8589 27.9618 52.5197C29.7228 52.1805 31.2672 51.365 32.5949 50.0733C33.9317 48.7503 34.9156 47.011 35.5466 44.8554C36.1959 42.6372 36.3185 40.5964 35.9145 38.7327C35.5104 36.8691 34.6656 35.2946 33.3801 34.0093C32.1037 32.6927 30.5018 31.7351 28.5744 31.1365ZM49.4594 43.5528C49.3569 45.2932 49.0405 47.0694 48.5101 48.8813C48.0071 50.5996 47.3359 52.1975 46.4965 53.6749L59.0868 57.585L62.0498 47.4629L49.4594 43.5528Z" fill="#FBFBFB"/>
<path d="M35.4268 30.1969L22.4386 26.6122C21.9062 26.4653 21.3619 26.7795 21.2229 27.314L19.3753 34.4161C19.2363 34.9506 19.5552 35.503 20.0875 35.6499L33.0757 39.2346C33.6081 39.3815 34.1524 39.0674 34.2915 38.5329L36.139 31.4308C36.278 30.8963 35.9592 30.3439 35.4268 30.1969Z" fill="#111927"/>
<path d="M30.2544 50.0797L17.2662 46.4951C16.7338 46.3481 16.1895 46.6623 16.0505 47.1968L14.4381 53.3951C14.299 53.9296 14.6179 54.482 15.1503 54.629L28.1385 58.2137C28.6709 58.3606 29.2152 58.0464 29.3542 57.5119L30.9666 51.3136C31.1057 50.7791 30.7868 50.2267 30.2544 50.0797Z" fill="#111927"/>
<path d="M16.726 48.2145L20.4543 33.8823C20.5933 33.3478 20.2745 32.7954 19.7421 32.6485L14.6507 31.2433C14.1183 31.0964 13.574 31.4105 13.435 31.945L9.70662 46.2772C9.56758 46.8117 9.88644 47.3641 10.4188 47.5111L15.5102 48.9163C16.0426 49.0632 16.5869 48.749 16.726 48.2145Z" fill="#111927"/>
<path d="M36.9066 53.7844L40.635 39.4522C40.774 38.9177 40.4551 38.3653 39.9228 38.2183L34.8313 36.8131C34.299 36.6662 33.7547 36.9804 33.6156 37.5149L29.8873 51.8471C29.7482 52.3815 30.0671 52.934 30.5995 53.0809L35.6909 54.4861C36.2233 54.633 36.7676 54.3189 36.9066 53.7844Z" fill="#111927"/>
<rect width="15.1037" height="15.3491" rx="1.8" transform="matrix(0.872812 -0.488057 -0.466253 -0.884651 81.1565 100.95)" fill="#FBF52D"/>
<mask id="path-9-inside-1_135_177" fill="white">
<rect width="15" height="15" rx="1.8" transform="matrix(1 0 0 -1 0 168)"/>
</mask>
<rect width="15" height="15" rx="1.8" transform="matrix(1 0 0 -1 0 168)" stroke="#FBF52D" stroke-width="4" mask="url(#path-9-inside-1_135_177)"/>
<rect width="10.0105" height="10.2901" rx="1.8" transform="matrix(0.981583 0.191034 0.180425 -0.983589 55 10.1216)" fill="#FBFBFB"/>
</svg>
