<svg width="35" height="26" viewBox="0 0 35 26" fill="none" xmlns="http://www.w3.org/2000/svg">
<rect y="10" width="35" height="6" rx="1" fill="#111927"/>
<rect width="5.65684" height="5.65684" rx="1" transform="matrix(1 0 0 -1 5 20.6568)" fill="#111927"/>
<path d="M5 6C5 5.44771 5.44772 5 6 5H9.65684C10.2091 5 10.6568 5.44772 10.6568 6V9.65684C10.6568 10.2091 10.2091 10.6568 9.65684 10.6568H6C5.44771 10.6568 5 10.2091 5 9.65684V6Z" fill="#111927"/>
<path d="M10 24.6568C10 25.2091 10.4477 25.6568 11 25.6568H14.6568C15.2091 25.6568 15.6568 25.2091 15.6568 24.6568V21C15.6568 20.4477 15.2091 20 14.6568 20H11C10.4477 20 10 20.4477 10 21V24.6568Z" fill="#111927"/>
<rect x="10" width="5.65684" height="5.65684" rx="1" fill="#111927"/>
</svg>
