<svg width="371" height="318" viewBox="0 0 371 318" fill="none" xmlns="http://www.w3.org/2000/svg">
<rect x="68" y="157.638" width="69" height="69" rx="12" fill="#FBFBFB"/>
<path d="M13 118.638H40.1231C45.9981 118.638 51.2046 119.727 55.7427 121.905C60.2808 124.084 63.7987 127.14 66.2965 131.074C68.8294 135.009 70.0958 139.506 70.0958 144.565C70.0958 149.623 68.8294 154.12 66.2965 158.055C63.7987 161.989 60.2808 165.046 55.7427 167.224C51.2046 169.402 45.9981 170.491 40.1231 170.491H30.7303V194.942H13V118.638ZM40.4398 154.366C44.1336 154.401 47.0359 153.54 49.1466 151.784C51.2574 150.027 52.3303 147.621 52.3655 144.565C52.3303 141.473 51.2574 139.067 49.1466 137.345C47.071 135.589 44.1688 134.728 40.4398 134.763H30.7303V154.366H40.4398Z" fill="#FBFBFB"/>
<path d="M102.644 220.273C97.226 220.273 92.3009 219.026 87.8683 216.532C83.4709 214.037 80.0058 210.612 77.4729 206.256C74.9752 201.865 73.7263 196.981 73.7263 191.607C73.7263 186.232 74.9752 181.366 77.4729 177.01C80.0058 172.618 83.4709 169.176 87.8683 166.681C92.3009 164.187 97.226 162.94 102.644 162.94C108.061 162.94 112.969 164.187 117.366 166.681C121.799 169.176 125.264 172.618 127.762 177.01C130.294 181.366 131.561 186.232 131.561 191.607C131.561 196.981 130.294 201.865 127.762 206.256C125.264 210.612 121.799 214.037 117.366 216.532C112.969 219.026 108.061 220.273 102.644 220.273ZM102.644 204.78C105.106 204.78 107.287 204.236 109.187 203.147C111.122 202.023 112.617 200.459 113.672 198.457C114.763 196.455 115.308 194.171 115.308 191.607C115.308 189.042 114.763 186.758 113.672 184.756C112.617 182.754 111.122 181.208 109.187 180.119C107.287 178.995 105.106 178.433 102.644 178.433C100.181 178.433 97.9823 178.995 96.0475 180.119C94.1478 181.208 92.6527 182.754 91.5621 184.756C90.5068 186.758 89.9791 189.042 89.9791 191.607C89.9791 194.171 90.5068 196.455 91.5621 198.457C92.6527 200.459 94.1478 202.023 96.0475 203.147C97.9823 204.236 100.181 204.78 102.644 204.78Z" fill="#111927"/>
<path d="M149.122 168.699H166.219V176.393H166.642C168.119 173.512 170.089 171.264 172.552 169.648C175.014 168.032 177.793 167.224 180.889 167.224C182.543 167.224 184.231 167.505 185.955 168.067V184.086C183.703 183.454 181.487 183.138 179.306 183.138C175.049 183.138 171.813 184.49 169.597 187.195C167.38 189.9 166.255 193.835 166.219 198.999V223.081H149.122V168.699Z" fill="#FBFBFB"/>
<path d="M99.8152 263.256H108.786V259.041C108.821 251.874 110.58 246.394 114.063 242.6C117.545 238.806 122.576 236.909 129.155 236.909C132.989 236.909 136.331 237.541 139.181 238.806V253.982C137.175 253.35 135.065 253.033 132.848 253.033C130.386 253.033 128.609 253.613 127.519 254.772C126.428 255.897 125.883 257.706 125.883 260.2V263.256H139.181V276.43H125.883V317.638H108.786V276.43H99.8152V263.256Z" fill="#FBFBFB"/>
<path d="M179.939 294.241C174.522 294.241 169.597 292.994 165.164 290.5C160.767 288.006 157.301 284.581 154.769 280.224C152.271 275.833 151.022 270.95 151.022 265.575C151.022 260.2 152.271 255.334 154.769 250.978C157.301 246.587 160.767 243.144 165.164 240.65C169.597 238.156 174.522 236.909 179.939 236.909C185.357 236.909 190.264 238.156 194.662 240.65C199.094 243.144 202.559 246.587 205.057 250.978C207.59 255.334 208.857 260.2 208.857 265.575C208.857 270.95 207.59 275.833 205.057 280.224C202.559 284.581 199.094 288.006 194.662 290.5C190.264 292.994 185.357 294.241 179.939 294.241ZM179.939 278.749C182.402 278.749 184.583 278.204 186.483 277.115C188.417 275.991 189.913 274.428 190.968 272.425C192.059 270.423 192.604 268.139 192.604 265.575C192.604 263.01 192.059 260.727 190.968 258.725C189.913 256.722 188.417 255.176 186.483 254.087C184.583 252.963 182.402 252.401 179.939 252.401C177.477 252.401 175.278 252.963 173.343 254.087C171.444 255.176 169.948 256.722 168.858 258.725C167.802 260.727 167.275 263.01 167.275 265.575C167.275 268.139 167.802 270.423 168.858 272.425C169.948 274.428 171.444 275.991 173.343 277.115C175.278 278.204 177.477 278.749 179.939 278.749Z" fill="#FBFBFB"/>
<path fill-rule="evenodd" clip-rule="evenodd" d="M272.475 295.77V241.388H255.378V295.77H272.475Z" fill="#FBFBFB"/>
<path d="M167.311 112.143H140.014V131.092H176.586V143.689H88.266V131.092H124.627V112.143H98.2784V63.4482H166.679V75.8336H113.56V99.7575H167.311V112.143Z" fill="#FBFBFB"/>
<path d="M257.528 87.3721H242.035V65.6712H221.009C218.62 68.0001 215.827 69.7997 212.631 71.07C209.434 72.3403 206.026 72.9754 202.407 72.9754C197.629 72.9754 193.256 71.8815 189.286 69.6938C185.351 67.5061 182.242 64.4891 179.958 60.6429C177.71 56.7615 176.586 52.4389 176.586 47.6753C176.586 42.8058 177.71 38.448 179.958 34.6018C182.207 30.7204 185.281 27.7034 189.18 25.5509C193.115 23.3632 197.489 22.2693 202.302 22.2693C205.956 22.2693 209.398 22.9045 212.631 24.1748C215.863 25.4451 218.673 27.2447 221.062 29.5736H242.035V16.6589H257.528V87.3721ZM259.531 112.143H192.5V80.5972H207.888V99.7575H259.531V112.143ZM202.407 35.7133C200.229 35.7133 198.279 36.1897 196.558 37.1424C194.872 38.0599 193.537 39.4184 192.553 41.218C191.604 43.0175 191.13 45.17 191.13 47.6753C191.13 50.11 191.604 52.2272 192.553 54.0268C193.537 55.7911 194.872 57.132 196.558 58.0494C198.279 58.9668 200.229 59.4256 202.407 59.4256C204.585 59.4256 206.535 58.9668 208.257 58.0494C209.978 57.132 211.331 55.7911 212.314 54.0268C213.298 52.2272 213.79 50.11 213.79 47.6753C213.79 45.17 213.298 43.0175 212.314 41.218C211.331 39.4184 209.978 38.0599 208.257 37.1424C206.535 36.1897 204.585 35.7133 202.407 35.7133ZM227.807 41.8531C228.229 43.688 228.44 45.6287 228.44 47.6753C228.44 49.616 228.229 51.4862 227.807 53.2858H242.035V41.8531H227.807Z" fill="#FBFBFB"/>
<path d="M290.411 118.494C295.47 118.494 300.055 119.535 304.165 121.617C308.31 123.699 311.56 126.593 313.914 130.298C316.303 134.003 317.497 138.149 317.497 142.736C317.497 147.358 316.303 151.522 313.914 155.227C311.56 158.932 308.328 161.843 304.218 163.96C300.107 166.042 295.505 167.083 290.411 167.083C285.352 167.083 280.75 166.042 276.604 163.96C272.494 161.843 269.244 158.932 266.856 155.227C264.502 151.522 263.325 147.358 263.325 142.736C263.325 138.149 264.502 134.02 266.856 130.351C269.244 126.646 272.494 123.752 276.604 121.67C280.75 119.553 285.352 118.494 290.411 118.494ZM290.516 131.833C288.198 131.833 286.107 132.256 284.246 133.103C282.419 133.914 280.978 135.149 279.924 136.808C278.87 138.431 278.361 140.407 278.396 142.736C278.396 145.03 278.906 147.023 279.924 148.717C280.978 150.375 282.401 151.646 284.193 152.528C285.984 153.41 288.022 153.851 290.306 153.851C292.589 153.851 294.644 153.428 296.471 152.581C298.298 151.699 299.738 150.428 300.792 148.77C301.846 147.076 302.391 145.065 302.426 142.736C302.426 140.442 301.899 138.484 300.845 136.861C299.826 135.202 298.421 133.95 296.629 133.103C294.838 132.256 292.8 131.833 290.516 131.833ZM341 209.638H325.718V112.143H341V209.638ZM259.531 177.987C271.475 177.951 282.384 177.74 292.255 177.352C302.162 176.963 311.595 176.117 320.554 174.811L321.713 185.926C312.86 187.69 303.638 188.872 294.047 189.472C284.491 190.072 274.532 190.372 264.168 190.372H261.322L259.531 177.987Z" fill="#FBFBFB"/>
<path fill-rule="evenodd" clip-rule="evenodd" d="M40.3645 41.5355C48.1637 32.8552 52.0808 21.9871 52.1159 8.93121H6.58587V21.1049H35.411C34.322 27.1388 30.8791 32.5023 25.0825 37.1953C19.2858 41.8884 11.2583 45.4876 1 47.9929L6.69126 60.1666C21.3761 56.4262 32.6005 50.2159 40.3645 41.5355ZM66.5549 57.5201H82.0477V3.63831H66.5549V57.5201Z" fill="#FBFBFB"/>
<rect x="206.418" y="130.428" width="15.7394" height="56.6618" rx="2" fill="#FBFBFB"/>
<rect x="194.269" y="143.076" width="17.5382" height="13.4909" rx="2" fill="#FBFBFB"/>
<rect x="234.749" y="171.35" width="15.7394" height="15.7394" rx="2" fill="#FBFBFB"/>
<rect x="217.204" y="143.076" width="17.5382" height="13.4909" rx="2" fill="#FBFBFB"/>
<rect x="220.583" y="183.942" width="15.7394" height="15.7394" rx="2" fill="#FBFBFB"/>
<rect x="222" y="243.638" width="14" height="58" rx="2" fill="#FBFBFB"/>
<rect x="233" y="298.568" width="13" height="13" rx="2" fill="#FBFBFB"/>
<rect x="255" y="215.568" width="18" height="18" rx="2" fill="#FBFBFB"/>
<rect x="308" y="231.638" width="23" height="11" rx="2" fill="#FBFBFB"/>
<rect x="308" y="276.638" width="23" height="11" rx="2" fill="#FBFBFB"/>
<rect x="298" y="238.638" width="11" height="11" rx="2" fill="#FBFBFB"/>
<rect x="291" y="248.638" width="11" height="23" rx="2" fill="#FBFBFB"/>
<rect x="298" y="269.638" width="11" height="11" rx="2" fill="#FBFBFB"/>
<rect width="11" height="11" rx="2" transform="matrix(-1 0 0 1 340 238.638)" fill="#FBFBFB"/>
<path d="M345.978 248.755C347.082 248.755 347.977 249.651 347.978 250.755V271.302C348.035 271.488 348.065 271.686 348.065 271.89V278.683C348.065 279.788 347.17 280.683 346.065 280.683H331.178C330.073 280.683 329.178 279.787 329.178 278.683V271.89C329.178 270.786 330.073 269.891 331.178 269.89H337.186V250.755C337.186 249.651 338.081 248.755 339.186 248.755H345.978Z" fill="#FBFBFB"/>
<rect x="194" y="31.6383" width="17" height="10" rx="1" fill="#111927"/>
<rect x="194" y="53.6383" width="17" height="9" rx="1" fill="#111927"/>
<rect x="195" y="38.6383" width="18" height="8" rx="1" transform="rotate(90 195 38.6383)" fill="#111927"/>
<rect x="218" y="38.6383" width="18" height="8" rx="1" transform="rotate(90 218 38.6383)" fill="#111927"/>
<rect width="9" height="10" rx="1" transform="matrix(1 0 0 -1 98 53.6383)" fill="#FBFBFB"/>
<rect x="0.5" y="-0.5" width="9" height="8" rx="0.5" transform="matrix(1 0 0 -1 36 191.638)" stroke="#FBF52D"/>
<rect x="0.5" y="-0.5" width="8" height="9" rx="0.5" transform="matrix(1 0 0 -1 0 120.638)" stroke="#FBF52D"/>
<rect x="0.5" y="-0.5" width="9" height="9" rx="0.5" transform="matrix(1 0 0 -1 263 117.568)" stroke="#FBF52D"/>
<rect x="0.5" y="-0.5" width="8" height="8" rx="0.5" transform="matrix(1 0 0 -1 188 229.638)" stroke="#FBF52D"/>
<rect width="9" height="9" rx="1" transform="matrix(1 0 0 -1 94 312.638)" fill="#FBFBFB"/>
<rect width="9" height="9" rx="1" transform="matrix(1 0 0 -1 44 231.638)" fill="#FBFBFB"/>
<rect x="0.5" y="-0.5" width="8" height="8" rx="0.5" transform="matrix(1 0 0 -1 312 202.638)" stroke="#FBF52D"/>
<rect width="9" height="9" rx="1" transform="matrix(1 0 0 -1 339 102.638)" fill="#FBFBFB"/>
<rect x="0.5" y="-0.5" width="8" height="8" rx="0.5" transform="matrix(1 0 0 -1 282 294.568)" stroke="#FBF52D"/>
<rect x="0.5" y="-0.5" width="8" height="8" rx="0.5" transform="matrix(1 0 0 -1 362 255.568)" stroke="#FBF52D"/>
<rect width="10" height="10" rx="1" transform="matrix(1 0 0 -1 250 130.638)" fill="#FBF52D"/>
<rect width="10" height="9" rx="1" transform="matrix(1 0 0 -1 354 243.638)" fill="#FBF52D"/>
<rect width="10" height="9" rx="1" transform="matrix(1 0 0 -1 48 186.638)" fill="#FBF52D"/>
<rect width="9" height="9" rx="1" transform="matrix(1 0 0 -1 89 300.638)" fill="#FBF52D"/>
<rect width="9" height="9" rx="1" transform="matrix(1 0 0 -1 202 235.638)" fill="#FBF52D"/>
<rect width="9" height="9" rx="1" transform="matrix(1 0 0 -1 5 104.638)" fill="#FBFBFB"/>
<rect width="11" height="24" rx="1" transform="matrix(1 0 0 -1 13 96.6383)" fill="#FBFBFB"/>
<rect width="9" height="26" rx="1" transform="matrix(1 0 0 -1 73 97.6383)" fill="#FBFBFB"/>
<rect width="52" height="9" rx="1" transform="matrix(1 0 0 -1 22 104.638)" fill="#FBFBFB"/>
<rect width="59" height="10" rx="1" transform="matrix(1 0 0 -1 23 74.6383)" fill="#FBFBFB"/>
<rect width="7.33398" height="76.0067" rx="1.3" transform="matrix(0.991029 -0.133648 -0.114465 -0.993427 291.156 83.3233)" fill="#FBFBFB"/>
<rect width="8.68212" height="7.50009" rx="1.3" transform="matrix(0.991029 -0.133648 -0.114465 -0.993427 290.197 21.712)" fill="#FBFBFB"/>
<rect width="7.33398" height="7.50009" rx="1.3" transform="matrix(0.991029 -0.133648 -0.114465 -0.993427 299.653 27.0725)" fill="#FBFBFB"/>
<rect width="7.33398" height="7.50009" rx="1.3" transform="matrix(0.991029 -0.133648 -0.114465 -0.993427 307.773 32.6132)" fill="#FBFBFB"/>
<rect width="7.33398" height="7.50009" rx="1.3" transform="matrix(0.991029 -0.133648 -0.114465 -0.993427 315.894 38.1539)" fill="#FBFBFB"/>
<rect width="7.33398" height="7.50009" rx="1.3" transform="matrix(0.991029 -0.133648 -0.114465 -0.993427 324.014 43.6946)" fill="#FBFBFB"/>
<rect width="7.33398" height="7.50009" rx="1.3" transform="matrix(0.991029 -0.133648 -0.114465 -0.993427 331.944 49.0709)" fill="#FBFBFB"/>
<rect width="7.33398" height="14.8084" rx="1.3" transform="matrix(0.991029 -0.133648 -0.114465 -0.993427 320.955 64.7519)" fill="#FBFBFB"/>
<rect width="14.079" height="7.50009" rx="1.3" transform="matrix(0.991029 -0.133648 -0.114465 -0.993427 317.005 85.9293)" fill="#FBFBFB"/>
<rect width="7" height="7" rx="1.3" transform="matrix(0.991029 -0.133648 -0.114465 -0.993427 296.958 73.9701)" fill="#FBFBFB"/>
<rect width="7" height="7" rx="1.3" transform="matrix(0.991029 -0.133648 -0.114465 -0.993427 302.303 68.7086)" fill="#FBFBFB"/>
<rect width="7.33398" height="14.6167" rx="1.3" transform="matrix(0.991029 -0.133648 -0.114465 -0.993427 329.302 77.4417)" fill="#FBFBFB"/>
<rect width="7.33398" height="14.6167" rx="1.3" transform="matrix(0.991029 -0.133648 -0.114465 -0.993427 309.935 80.4088)" fill="#FBFBFB"/>
<rect width="27.3413" height="7.50009" rx="1.3" transform="matrix(0.991029 -0.133648 -0.114465 -0.993427 320.427 57.45)" fill="#FBFBFB"/>
</svg>
