<svg width="396" height="276" viewBox="0 0 396 276" fill="none" xmlns="http://www.w3.org/2000/svg">
<path d="M18.0969 34.996H60.8439C70.1029 34.996 78.3086 36.7147 85.4608 40.1522C92.613 43.5897 98.1573 48.4133 102.094 54.623C106.086 60.8326 108.082 67.9294 108.082 75.9133C108.082 83.8972 106.086 90.9939 102.094 97.2036C98.1573 103.413 92.613 108.237 85.4608 111.674C78.3086 115.112 70.1029 116.831 60.8439 116.831H46.0405V155.419H18.0969V34.996ZM61.3429 91.382C67.1644 91.4375 71.7385 90.0791 75.0651 87.3069C78.3917 84.5348 80.0828 80.7369 80.1382 75.9133C80.0828 71.0343 78.3917 67.2364 75.0651 64.5196C71.794 61.7475 67.2199 60.3891 61.3429 60.4445H46.0405V91.382H61.3429Z" fill="#111927"/>
<path d="M127.838 62.4821H151.416V73.1065H151.998C154.035 69.1284 156.752 66.0235 160.148 63.7919C163.544 61.5603 167.376 60.4445 171.646 60.4445C173.926 60.4445 176.254 60.8326 178.632 61.6089V83.7308C175.527 82.8576 172.47 82.421 169.463 82.421C163.592 82.421 159.129 84.2887 156.073 88.0242C153.017 91.7597 151.464 97.1932 151.416 104.325V137.58H127.838V62.4821Z" fill="#111927"/>
<path d="M177.469 224.939C169.319 224.939 162.115 223.241 155.856 219.845C149.647 216.449 144.82 211.768 141.375 205.801C137.979 199.785 136.281 192.969 136.281 185.353C136.281 177.688 137.979 170.847 141.375 164.832C144.82 158.816 149.574 154.134 155.638 150.787C161.751 147.44 168.64 145.766 176.305 145.766C183.873 145.766 190.592 147.44 196.462 150.787C202.332 154.134 206.916 158.816 210.215 164.832C213.514 170.799 215.164 177.639 215.164 185.353C215.067 188.166 214.873 190.543 214.581 192.484H159.786C160.562 196.656 162.551 200.004 165.753 202.526C169.003 205.049 172.909 206.31 177.469 206.31C180.913 206.31 183.848 205.607 186.274 204.2C188.748 202.793 190.616 200.78 191.877 198.16L212.253 205.437C209.148 211.55 204.612 216.328 198.645 219.773C192.678 223.217 185.619 224.939 177.469 224.939ZM191.441 176.184C190.956 172.739 189.33 169.925 186.565 167.742C183.848 165.511 180.428 164.395 176.305 164.395C172.23 164.395 168.737 165.462 165.826 167.597C162.915 169.683 160.975 172.545 160.004 176.184H191.441Z" fill="#111927"/>
<path d="M268.203 200.27C260.732 200.27 253.916 198.548 247.754 195.104C241.593 191.611 236.742 186.856 233.2 180.841C229.659 174.825 227.888 168.106 227.888 160.684C227.888 153.261 229.659 146.542 233.2 140.527C236.742 134.511 241.593 129.781 247.754 126.336C253.916 122.843 260.732 121.097 268.203 121.097C273.685 121.097 278.803 122.019 283.557 123.862C288.36 125.706 292.532 128.325 296.073 131.721C299.615 135.117 302.404 139.095 304.442 143.656L283.63 151.66C282.223 148.749 280.185 146.494 277.517 144.893C274.849 143.292 271.696 142.491 268.057 142.491C264.613 142.491 261.532 143.292 258.815 144.893C256.147 146.445 254.061 148.628 252.557 151.442C251.053 154.207 250.301 157.336 250.301 160.829C250.301 164.371 251.077 167.524 252.63 170.289C254.182 173.006 256.341 175.116 259.106 176.62C261.872 178.124 265.001 178.876 268.494 178.876C271.938 178.876 274.994 178.076 277.663 176.475C280.331 174.825 282.32 172.569 283.63 169.707L304.442 177.712C302.404 182.272 299.615 186.25 296.073 189.646C292.532 193.042 288.36 195.662 283.557 197.505C278.803 199.349 273.685 200.27 268.203 200.27Z" fill="#111927"/>
<path fill-rule="evenodd" clip-rule="evenodd" d="M69.4723 268.295C73.6444 269.945 78.2531 270.77 83.2985 270.77C92.3704 270.77 99.3078 268.15 104.111 262.91C108.913 257.671 111.339 250.103 111.388 240.206V162.197H87.8102V238.605C87.8102 242.05 87.0583 244.548 85.5543 246.101C84.0504 247.702 81.6005 248.502 78.2046 248.502C75.2453 248.502 72.3345 248.114 69.4723 247.338V268.295Z" fill="#111927"/>
<rect width="24.5795" height="24.5795" rx="4" transform="matrix(1 0 0.0193313 -0.999813 86.8241 155.044)" fill="#111927"/>
<rect width="37.8468" height="8.60882" rx="1" transform="matrix(1 0 0.0193313 -0.999813 156.964 179.994)" fill="#FBFBFB"/>
<rect width="27.6734" height="8.60882" rx="1" transform="matrix(1 0 0.0193313 -0.999813 162.051 171.478)" fill="#FBFBFB"/>
<rect width="86.1646" height="83.9849" rx="13" transform="matrix(-0.0147946 0.999891 -1 -2.85154e-10 277.937 25.5483)" fill="#111927"/>
<path d="M235.679 43.4824C248.836 43.4824 259.773 54.4968 259.564 68.6262C259.354 82.7553 248.091 93.7689 234.935 93.7689C221.778 93.7688 210.841 82.7552 211.05 68.6262C211.259 54.4969 222.522 43.4825 235.679 43.4824Z" stroke="#FBFBFB" stroke-width="20"/>
<rect x="331.745" y="125.613" width="22.948" height="82.613" rx="2.5" fill="#111927"/>
<rect x="314.032" y="144.053" width="25.5707" height="19.6698" rx="2.5" fill="#111927"/>
<rect x="373.052" y="185.278" width="22.948" height="22.948" rx="2.5" fill="#111927"/>
<rect x="347.471" y="144.053" width="25.5707" height="19.6698" rx="2.5" fill="#111927"/>
<rect x="352.399" y="203.636" width="22.948" height="22.948" rx="2.5" fill="#111927"/>
<rect x="0.5" y="-0.5" width="9.64515" height="9.64515" rx="0.5" transform="matrix(1 0 0 -1 67.0646 161.871)" stroke="#FBF52D"/>
<rect x="0.5" y="-0.5" width="9.64515" height="9.64515" rx="0.5" transform="matrix(1 0 0 -1 28.7421 28.8064)" stroke="#FBF52D"/>
<rect x="0.5" y="-0.5" width="9.64515" height="9.64515" rx="0.5" transform="matrix(1 0 0 -1 307.645 181.032)" stroke="#FBF52D"/>
<rect x="0.5" y="-0.5" width="9.64515" height="9.64515" rx="0.5" transform="matrix(1 0 0 -1 132 274.709)" stroke="#FBF52D"/>
<rect width="10.6452" height="10.6452" rx="1" transform="matrix(1 0 0 -1 165 125.613)" fill="#111927"/>
<rect width="10.6452" height="10.6452" rx="1" transform="matrix(1 0 0 -1 272.516 21.2903)" fill="#111927"/>
<rect width="10.6452" height="10.6452" rx="1" transform="matrix(1 0 0 -1 0.00012207 45.7742)" fill="#111927"/>
<rect width="10.6452" height="10.6452" rx="1" transform="matrix(1 0 0 -1 365.129 114.968)" fill="#111927"/>
<rect width="10.6452" height="10.6452" rx="1" transform="matrix(1 0 0 -1 224.613 219.29)" fill="#111927"/>
<rect width="10.6452" height="10.6452" rx="1" transform="matrix(1 0 0 -1 312.968 224.613)" fill="#111927"/>
<rect width="10.6452" height="10.6452" rx="1" transform="matrix(1 0 0 -1 56.4194 147.968)" fill="#FBF52D"/>
<rect width="10.6452" height="10.6452" rx="1" transform="matrix(1 0 0 -1 12.7743 25.5483)" fill="#FBF52D"/>
<rect width="10.6452" height="10.6452" rx="1" transform="matrix(1 0 0 -1 293.806 166.064)" fill="#FBF52D"/>
<rect width="10.6452" height="10.6452" rx="1" transform="matrix(1 0 0 -1 116.032 261.871)" fill="#FBF52D"/>
<rect width="10.6452" height="10.6452" rx="1" transform="matrix(1 0 0 -1 256.548 10.6451)" fill="#FBF52D"/>
<rect width="7.80714" height="80.9104" rx="1.3" transform="matrix(0.991029 -0.133648 -0.114465 -0.993427 304.618 105.731)" fill="#111927"/>
<rect width="7.80714" height="7.98396" rx="1.3" transform="matrix(0.991029 -0.133648 -0.114465 -0.993427 305.019 39.9531)" fill="#111927"/>
<rect width="7.80714" height="7.98396" rx="1.3" transform="matrix(0.991029 -0.133648 -0.114465 -0.993427 313.663 45.8513)" fill="#111927"/>
<rect width="7.80714" height="7.98396" rx="1.3" transform="matrix(0.991029 -0.133648 -0.114465 -0.993427 322.307 51.7495)" fill="#111927"/>
<rect width="7.80714" height="7.98396" rx="1.3" transform="matrix(0.991029 -0.133648 -0.114465 -0.993427 330.951 57.6477)" fill="#111927"/>
<rect width="7.80714" height="7.98396" rx="1.3" transform="matrix(0.991029 -0.133648 -0.114465 -0.993427 339.595 63.5459)" fill="#111927"/>
<rect width="7.80714" height="7.98396" rx="1.3" transform="matrix(0.991029 -0.133648 -0.114465 -0.993427 348.037 69.269)" fill="#111927"/>
<rect width="7.80714" height="15.7638" rx="1.3" transform="matrix(0.991029 -0.133648 -0.114465 -0.993427 336.339 85.9617)" fill="#111927"/>
<rect width="14.9873" height="7.98396" rx="1.3" transform="matrix(0.991029 -0.133648 -0.114465 -0.993427 332.134 108.505)" fill="#111927"/>
<rect width="7.45161" height="7.45161" rx="1.3" transform="matrix(0.991029 -0.133648 -0.114465 -0.993427 310.794 95.7745)" fill="#111927"/>
<rect width="7.45161" height="7.45161" rx="1.3" transform="matrix(0.991029 -0.133648 -0.114465 -0.993427 316.484 90.1736)" fill="#111927"/>
<rect width="7.80714" height="15.5597" rx="1.3" transform="matrix(0.991029 -0.133648 -0.114465 -0.993427 345.225 99.4701)" fill="#111927"/>
<rect width="7.80714" height="15.5597" rx="1.3" transform="matrix(0.991029 -0.133648 -0.114465 -0.993427 324.609 102.629)" fill="#111927"/>
<rect width="29.1052" height="7.98396" rx="1.3" transform="matrix(0.991029 -0.133648 -0.114465 -0.993427 335.777 78.1886)" fill="#111927"/>
</svg>
